<svg xmlns="http://www.w3.org/2000/svg" viewBox="0 0 560 120" role="img" aria-label="Seed Planning">
  <title>Seed Planning</title>
  <rect x="0" y="0" width="560" height="120" fill="none"/>
  <g fill="currentColor">
    <path d="M56 25c-12 0-22 10-22 22 0 6 2 11 6 15 5 6 14 9 24 13 12 4 20 7 20 16 0 8-7 14-17 14-8 0-14-3-20-9l-11 13c8 9 20 14 33 14 20 0 35-13 35-32 0-8-3-15-8-20-6-6-15-9-26-13-11-4-18-6-18-13 0-6 5-11 12-11 6 0 11 2 16 7l10-13c-7-7-18-12-34-12z"/>
    <path d="M150 30h24l-24 60h-24l-24-60h24l12 36 12-36z"/>
    <path d="M222 25c-19 0-34 14-34 33 0 19 15 33 35 33 10 0 19-3 26-9l-10-14c-4 4-9 6-15 6-9 0-15-5-16-13h45c0-2 1-4 1-7 0-17-12-29-32-29zm-12 24c2-7 7-11 13-11 7 0 11 4 12 11h-25z"/>
    <path d="M330 28h22v62h-22V28z"/>
    <path d="M404 28h21l23 33V28h22v62h-21l-23-33v33h-22V28z"/>
  </g>
  <text x="280" y="108" text-anchor="middle" font-family="ui-sans-serif, system-ui, -apple-system, Segoe UI, Roboto" font-size="18" fill="currentColor" opacity="0.75">Global Research in Japan</text>
</svg>
